<?xml version="1.0" encoding="UTF-8" standalone="no"?>
<!-- Created with Inkscape (http://www.inkscape.org/) -->

<svg
   xmlns:dc="http://purl.org/dc/elements/1.1/"
   xmlns:cc="http://creativecommons.org/ns#"
   xmlns:rdf="http://www.w3.org/1999/02/22-rdf-syntax-ns#"
   xmlns:svg="http://www.w3.org/2000/svg"
   xmlns="http://www.w3.org/2000/svg"
   xmlns:sodipodi="http://sodipodi.sourceforge.net/DTD/sodipodi-0.dtd"
   xmlns:inkscape="http://www.inkscape.org/namespaces/inkscape"
   width="200.99998"
   height="82.987221"
   viewBox="0 0 53.181249 21.957034"
   version="1.1"
   id="svg8881"
   inkscape:version="0.92.0 r15299"
   sodipodi:docname="al ahram.svg">
  <defs
     id="defs8875" />
  <sodipodi:namedview
     id="base"
     pagecolor="#ffffff"
     bordercolor="#666666"
     borderopacity="1.0"
     inkscape:pageopacity="0.0"
     inkscape:pageshadow="2"
     inkscape:zoom="4.4850001"
     inkscape:cx="100.49999"
     inkscape:cy="41.493628"
     inkscape:document-units="mm"
     inkscape:current-layer="layer1"
     showgrid="false"
     fit-margin-top="0"
     fit-margin-left="0"
     fit-margin-right="0"
     fit-margin-bottom="0"
     units="px"
     inkscape:window-width="1280"
     inkscape:window-height="744"
     inkscape:window-x="-4"
     inkscape:window-y="-4"
     inkscape:window-maximized="1" />
  <metadata
     id="metadata8878">
    <rdf:RDF>
      <cc:Work
         rdf:about="">
        <dc:format>image/svg+xml</dc:format>
        <dc:type
           rdf:resource="http://purl.org/dc/dcmitype/StillImage" />
        <dc:title></dc:title>
      </cc:Work>
    </rdf:RDF>
  </metadata>
  <g
     inkscape:label="Layer 1"
     inkscape:groupmode="layer"
     id="layer1"
     transform="translate(-230.14667,-220.0488)">
    <g
       id="g8952"
       transform="matrix(0.1108315,0,0,0.1108315,222.88765,212.01049)"
       style="stroke-width:2.38725758">
      <g
         id="Layer1000"
         style="stroke-width:2.38725758">
        <path
           d="m 283.1545,267.9454 -118.81,-121.7406 -94.591,121.7406 z m -118.3391,-123.4 120.6521,123.6285 1.241,1.2716 h -1.777 -216.7101 -1.5318 l 0.9399,-1.2101 96.058,-123.6285 0.5266,-0.6775 z"
           style="fill:#e30016;fill-rule:evenodd;stroke-width:2.38725758"
           id="path2"
           inkscape:connector-curvature="0" />
        <path
           d="m 196.6746,178.2615 -32.3953,-33.1945 24.2214,44.2037 z"
           style="fill:#e30016;fill-rule:evenodd;stroke-width:2.38725758"
           id="path4"
           inkscape:connector-curvature="0" />
      </g>
      <g
         id="Layer1001"
         style="stroke-width:2.38725758">
        <path
           d="M 443.2484,267.9454 260.373,95.1846 129.7278,267.9454 Z M 260.7919,93.522 l 184.8527,174.6287 1.3708,1.2948 h -1.8836 -316.9103 -1.506 l 0.9082,-1.2013 132.0576,-174.6286 0.5043,-0.6664 z"
           style="fill:#e30016;fill-rule:evenodd;stroke-width:2.38725758"
           id="path7"
           inkscape:connector-curvature="0" />
        <path
           d="M 307.6055,138.7755 260.2793,94.0668 298.519,150.8781 Z"
           style="fill:#e30016;fill-rule:evenodd;stroke-width:2.38725758"
           id="path9"
           inkscape:connector-curvature="0" />
      </g>
      <path
         d="M 540.6043,267.9454 354.6343,76.0311 213.1047,267.9454 Z M 355.0924,74.3545 l 187.8162,193.8194 1.2325,1.2716 h -1.7685 -330.751 -1.4828 l 0.8793,-1.1925 142.9348,-193.8195 0.5258,-0.7126 z"
         style="fill:#e30016;fill-rule:evenodd;stroke-width:2.38725758"
         id="path12"
         inkscape:connector-curvature="0" />
      <path
         d="M 542.3726,268.6955 354.5563,74.876 487.1996,268.6955 Z"
         style="fill:#e30016;fill-rule:evenodd;stroke-width:2.38725758"
         id="path14"
         inkscape:connector-curvature="0" />
      <path
         d="m 275.5346,259.0668 -1.464,-1.5001 H 76.8685 l -1.1656,1.5001 z m -11.7113,-12.0002 -1.4641,-1.5001 H 86.1925 l -1.1656,1.5001 z m -10.2472,-10.5001 -1.4641,-1.5001 H 94.3509 l -1.1656,1.5001 z m -10.8329,-11.1002 -1.4641,-1.5001 H 102.9756 l -1.1656,1.5001 z m -10.2473,-10.4998 -1.4638,-1.5001 H 111.1337 l -1.1656,1.5001 z m -10.5397,-10.8 -1.4641,-1.5001 H 119.5254 l -1.1656,1.5001 z m -10.5401,-10.8 -1.4641,-1.5001 h -82.0352 l -1.1656,1.5001 z m -10.8326,-11.0999 -1.4641,-1.5001 h -62.5782 l -1.1656,1.5001 z m -9.9544,-10.1999 -1.4641,-1.5001 h -44.6987 l -1.1653,1.5001 z m -9.9547,-10.2002 -1.4638,-1.5001 H 152.392 l -1.1656,1.5001 z m -11.7111,-11.9999 -1.4638,-1.5001 h -5.7838 l -1.1656,1.5001 z"
         style="fill:#e30016;fill-rule:evenodd;stroke-width:2.38725758"
         id="path16"
         inkscape:connector-curvature="0" />
      <path
         d="m 361.8428,84.9923 v 10.2748 h -1.5001 V 84.9923 Z M 207.1392,192.4841 v 10.6251 h -1.5001 v -10.6251 z m 51.5001,65.7504 v 10.1251 h -1.5001 v -10.1251 z m -25.6249,-0.125 v 10.6251 h -1.5001 v -10.6251 z m 13.375,-11.8755 v 12.3755 h -1.5001 V 246.234 Z m -26.0002,-21.3749 v 10.6251 h -1.5001 v -10.6251 z m 12.6252,10.7501 v 10.6251 h -1.5001 v -10.6251 z m 0,-21.6249 v 10.6251 h -1.5001 v -10.6251 z m -25.7502,0 v 10.6251 h -1.5001 v -10.6251 z m 13.125,-10.7501 v 10.6251 h -1.5001 v -10.6251 z m 154.7487,43.2496 v 11.7499 h -1.5001 v -11.7499 z m -64.7502,-96.9999 v 11.2499 h -1.5 v -11.2499 z m 11.7502,11.4999 v 10.4998 h -1.5001 v -10.4998 z m 14.7498,10.2501 v 10.4998 h -1.5001 v -10.4998 z m 12.0002,10.25 v 10.4998 h -1.5001 v -10.4998 z m 14.2501,11.2499 v 10.4998 h -1.5001 v -10.4998 z m -25.5002,0 v 10.4998 h -1.5001 v -10.4998 z m 36.7503,11.0001 v 10.4998 h -1.5001 v -10.4998 z m -25.5002,0 v 10.4998 h -1.5001 v -10.4998 z m 39.7502,10.5001 v 10.4998 H 387.138 V 214.234 Z m -25.5001,0 v 10.4998 h -1.5001 V 214.234 Z m 37.2503,10.7498 v 10.4999 h -1.5001 v -10.4999 z m -25.5002,0 v 10.4999 h -1.5001 v -10.4999 z m 15.2501,10.7502 v 10.4998 h -1.5001 V 235.734 Z m -25.5002,0 v 10.4998 h -1.5 V 235.734 Z m 51.7499,22.7497 v 9.9998 h -1.5001 v -9.9998 z m -26.75,0 v 9.9998 h -1.5001 v -9.9998 z m 11.0001,-11.9999 v 11.7499 h -1.5 V 246.4838 Z M 77.7419,258.1673 v 10.5001 h -1.5001 v -10.5001 z m 387.0014,0 v 10.5001 h -1.5001 v -10.5001 z m -25.8001,0 v 10.5001 h -1.5001 v -10.5001 z m -77.4003,0 v 10.5001 h -1.5001 v -10.5001 z m -25.8001,0 v 10.5001 h -1.5001 v -10.5001 z m -25.8001,0 v 10.5001 h -1.5001 v -10.5001 z m -25.8001,0 v 10.5001 h -1.5001 v -10.5001 z m -77.4003,0 v 10.5001 h -1.5001 v -10.5001 z m -25.8001,0 v 10.5001 h -1.5001 v -10.5001 z m -25.8001,0 v 10.5001 h -1.5001 v -10.5001 z m -25.8001,0 v 10.5001 h -1.5 v -10.5001 z m -25.8,0 v 10.5001 h -1.5001 V 258.1673 Z M 91.5418,246.3174 v 11.4001 h -1.5001 v -11.4001 z m 361.2013,0 v 11.4001 h -1.5001 v -11.4001 z m -25.8001,0 v 11.4001 h -1.5001 v -11.4001 z m -77.4003,0 v 11.4001 h -1.5001 v -11.4001 z m -25.8001,0 v 11.4001 h -1.5001 v -11.4001 z m -25.8001,0 v 11.4001 h -1.5001 v -11.4001 z m -25.8001,0 v 11.4001 h -1.5001 v -11.4001 z m -51.6002,0 v 11.4001 h -1.5001 v -11.4001 z m -25.8001,0 v 11.4001 h -1.5001 v -11.4001 z m -25.8001,0 v 11.4001 h -1.5 v -11.4001 z m -25.8,0 v 11.4001 h -1.5001 v -11.4001 z m -25.8001,0 v 11.4001 h -1.5001 v -11.4001 z m -13.5,-10.6875 v 10.5375 h -1.5001 v -10.5375 z m 361.2013,0 v 10.5375 h -1.5001 v -10.5375 z m -25.8001,0 v 10.5375 h -1.5001 v -10.5375 z m -103.2004,0 v 10.5375 h -1.5001 v -10.5375 z m -25.8001,0 v 10.5375 h -1.5001 v -10.5375 z m -25.8001,0 v 10.5375 h -1.5001 v -10.5375 z m -25.8001,0 v 10.5375 h -1.5001 v -10.5375 z m -51.6002,0 v 10.5375 h -1.5001 v -10.5375 z m -25.8001,0 v 10.5375 h -1.5001 v -10.5375 z m -25.8001,0 v 10.5375 h -1.5 v -10.5375 z m -25.8,0 v 10.5375 h -1.5001 V 235.6299 Z M 452.7431,224.905 v 10.5376 H 451.243 V 224.905 Z m -25.8001,0 v 10.5376 h -1.5001 V 224.905 Z m -77.4003,0 v 10.5376 h -1.5001 V 224.905 Z m -25.8001,0 v 10.5376 h -1.5001 V 224.905 Z m -25.8001,0 v 10.5376 h -1.5001 V 224.905 Z m -25.8001,0 v 10.5376 h -1.5001 V 224.905 Z m -25.8001,0 v 10.5376 h -1.5001 V 224.905 Z m -51.6002,0 v 10.5376 H 193.242 V 224.905 Z m -25.8001,0 v 10.5376 h -1.5 V 224.905 Z m -25.8,0 v 10.5376 h -1.5001 V 224.905 Z m -25.8001,0 v 10.5376 h -1.5001 V 224.905 Z m 321.9012,-10.7251 v 10.5375 h -1.5001 v -10.5375 z m -25.8001,0 v 10.5375 h -1.5001 v -10.5375 z m -77.4003,0 v 10.5375 h -1.5001 v -10.5375 z m -25.8001,0 v 10.5375 h -1.5001 v -10.5375 z m -25.8001,0 v 10.5375 h -1.5001 v -10.5375 z m -25.8001,0 v 10.5375 h -1.5001 v -10.5375 z m -77.4003,0 v 10.5375 h -1.5001 v -10.5375 z m -25.8001,0 v 10.5375 h -1.5 v -10.5375 z m -25.8,0 v 10.5375 h -1.5001 V 214.1799 Z M 426.943,203.455 v 10.5375 h -1.5001 V 203.455 Z m -25.8001,0 v 10.5375 h -1.5001 V 203.455 Z m -77.4003,0 v 10.5375 h -1.5001 V 203.455 Z m -25.8001,0 v 10.5375 h -1.5001 V 203.455 Z m -25.8001,0 v 10.5375 h -1.5001 V 203.455 Z m -25.8001,0 v 10.5375 h -1.5001 V 203.455 Z m -51.6002,0 v 10.5375 H 193.242 V 203.455 Z m -25.8001,0 v 10.5375 h -1.5 V 203.455 Z m -25.8,0 v 10.5375 h -1.5001 V 203.455 Z m -25.8001,1.6875 v 8.85 h -1.5001 v -6.6002 z m 321.9012,-6.7252 v 4.85 h -1.5001 v -6.7249 z m -25.8001,-5.6875 v 10.5375 h -1.5001 v -10.5375 z m -25.8001,0 v 10.5375 h -1.5001 v -10.5375 z m -77.4003,0 v 10.5375 h -1.5001 v -10.5375 z m -25.8001,0 v 10.5375 h -1.5001 v -10.5375 z m -25.8001,0 v 10.5375 h -1.5001 v -10.5375 z m -25.8001,0 v 10.5375 h -1.5001 v -10.5375 z m -51.6002,0 v 10.5375 h -1.5001 v -10.5375 z m -25.8001,0 v 10.5375 h -1.5 v -10.5375 z m -25.8,0 v 10.5375 h -1.5001 V 192.7298 Z M 426.943,181.855 v 10.5375 h -1.5001 V 181.855 Z m -25.8001,0 v 10.5375 h -1.5001 V 181.855 Z m -25.8001,0 v 10.5375 h -1.5001 V 181.855 Z m -51.6002,0 v 10.5375 h -1.5001 V 181.855 Z m -25.8001,0 v 10.5375 h -1.5001 V 181.855 Z m -25.8001,0 v 10.5375 h -1.5001 V 181.855 Z m -25.8001,0 v 10.5375 h -1.5001 V 181.855 Z m -25.8001,0 v 10.5375 h -1.5001 V 181.855 Z m -51.6002,0 v 10.5375 h -1.5 V 181.855 Z m -25.8,0 v 10.5375 h -1.5001 V 181.855 Z m 270.301,-10.7252 v 10.5375 h -1.5001 v -10.5375 z m -25.8001,0 v 10.5375 h -1.5001 v -10.5375 z m -25.8001,0 v 10.5375 h -1.5001 v -10.5375 z m -51.6002,0 v 10.5375 h -1.5001 v -10.5375 z m -25.8001,0 v 10.5375 h -1.5001 v -10.5375 z m -25.8001,0 v 10.5375 h -1.5001 v -10.5375 z m -25.8001,0 v 10.5375 h -1.5001 v -10.5375 z m -25.8001,0 v 10.5375 h -1.5001 v -10.5375 z m -25.8001,0 v 10.5375 h -1.5001 v -10.5375 z m -25.8001,0 v 10.5375 h -1.5 v -10.5375 z m 245.7009,-9.9748 v 10.5375 h -1.5001 V 161.155 Z m -25.8001,0 v 10.5375 h -1.5001 V 161.155 Z m -25.8001,0 v 10.5375 h -1.5001 V 161.155 Z m -51.6002,0 v 10.5375 h -1.5001 V 161.155 Z m -25.8001,0 v 10.5375 h -1.5001 V 161.155 Z m -25.8001,0 v 10.5375 h -1.5001 V 161.155 Z m -25.8001,0 v 10.5375 h -1.5001 V 161.155 Z m -51.6002,0 v 10.5375 h -1.5 V 161.155 Z m 218.7009,-11.8125 v 11.6248 h -1.5001 v -11.6248 z m -25.8001,0 v 11.6248 h -1.5001 v -11.6248 z m -25.8001,0 v 11.6248 h -1.5001 v -11.6248 z m -51.6002,0 v 11.6248 h -1.5001 v -11.6248 z m -25.8001,0 v 11.6248 h -1.5001 v -11.6248 z m -25.8001,0 v 11.6248 h -1.5001 V 149.3425 Z M 401.1429,138.655 v 10.5375 h -1.5001 V 138.655 Z m -25.8001,0 v 10.5375 h -1.5001 V 138.655 Z m -25.8001,0 v 10.5375 h -1.5001 V 138.655 Z m -25.8001,0 v 10.5375 h -1.5001 V 138.655 Z m -51.6002,0 v 10.5375 h -1.5001 V 138.655 Z m -25.8001,0 v 10.5375 h -1.5001 V 138.655 Z m 141.3006,-9.7124 v 9.9746 h -1.5001 v -9.9746 z m -25.8001,0 v 9.9746 h -1.5001 v -9.9746 z m -25.8001,0 v 9.9746 h -1.5001 v -9.9746 z m -51.6002,0 v 9.9746 h -1.5001 v -9.9746 z m -25.8001,0 v 9.9746 h -1.5001 v -9.9746 z m -25.8001,1.4828 v 8.4918 h -1.5001 v -7.1569 z m 142.5005,-13.1828 v 12 h -1.5001 v -12 z m -25.8001,0 v 12 h -1.5001 v -12 z m -25.8001,0 v 12 h -1.5001 v -12 z m -51.6002,0 v 12 h -1.5001 v -12 z m -25.8001,0 v 12 h -1.5001 v -12 z m 115.5005,-11.2501 v 11.0245 h -1.5001 v -11.0245 z m -25.8001,0 v 11.0245 h -1.5001 v -11.0245 z m -77.4003,0 v 11.0245 h -1.5001 v -11.0245 z m 90.9003,-10.65 v 10.8 h -1.5001 v -10.8 z"
         style="fill:#e30016;fill-rule:evenodd;stroke-width:2.38725758"
         id="path18"
         inkscape:connector-curvature="0" />
      <path
         d="m 434.9392,259.0668 -1.5879,-1.5001 h -296.714 l -1.1344,1.5001 z m -12.7026,-12.0002 -1.5879,-1.5001 H 145.7121 l -1.1344,1.5001 z m -11.1149,-10.5001 -1.588,-1.5001 H 153.6525 l -1.1344,1.5001 z m -11.7502,-11.1002 -1.5877,-1.5001 h -235.737 l -1.1345,1.5001 z m -11.1143,-10.4998 -1.588,-1.5001 H 169.9869 l -1.1344,1.5001 z m -11.4324,-10.8 -1.588,-1.5001 H 178.1541 l -1.1344,1.5001 z m -11.4325,-10.8 -1.5876,-1.5001 H 186.3213 l -1.1345,1.5001 z m -11.7496,-11.0999 -1.5879,-1.5001 H 194.7152 l -1.1344,1.5001 z m -10.7971,-10.1999 -1.588,-1.5001 h -138.829 l -1.1345,1.5001 z m -10.7975,-10.2002 -1.5877,-1.5001 H 210.1422 l -1.1344,1.5001 z m -12.7023,-11.9999 -1.588,-1.5001 h -98.541 l -1.1345,1.5001 z m -10.7975,-10.2002 -1.5879,-1.5001 h -80.03 l -1.1344,1.5001 z m -10.1622,-9.6001 -1.5876,-1.5001 h -62.6083 l -1.1344,1.5001 z m -12.7023,-11.9999 -1.588,-1.5001 h -40.831 l -1.1345,1.5001 z m -11.7502,-11.1002 -1.5879,-1.5001 h -20.687 l -1.1344,1.5001 z m -11.4321,-10.8 -1.588,-1.5001 h -1.0876 l -1.1344,1.5001 z"
         style="fill:#e30016;fill-rule:evenodd;stroke-width:2.38725758"
         id="path20"
         inkscape:connector-curvature="0" />
      <path
         d="m 490.4572,257.7852 7.7695,10.3944 -1.2013,0.8963 -7.7695,-10.3944 z m -73.4576,-108.8353 8.8195,11.677 -1.8261,0.1463 -8.2967,-11.308 z m 32.0001,32.125 8.8194,11.677 -1.8261,0.1463 -8.2967,-11.308 z m -4.0627,10.9375 8.8195,11.677 -1.8261,0.1463 -8.2967,-11.308 z m 18.2503,10.8751 8.8195,11.677 -1.8261,0.1463 -8.2967,-11.308 z m 18.887,10.6475 7.7695,10.3944 -1.2013,0.8963 -7.7695,-10.3944 z m -23.7424,0 7.7695,10.3944 -1.2014,0.8963 -7.7694,-10.3944 z m 20.793,10.8524 8.8194,11.6771 -1.8261,0.1462 -8.2967,-11.3079 z m 17.4495,10.8975 7.7694,10.3944 -1.2013,0.8963 -7.7695,-10.3943 z m -23.7425,0 7.7695,10.3944 -1.2013,0.8963 -7.7695,-10.3943 z m 41.5661,10.5968 8.9215,12.058 -1.2013,0.8963 -8.9215,-12.058 z m -21.1251,0 8.9214,12.058 -1.2013,0.8963 -8.9215,-12.058 z m 20.9267,11.9035 7.7695,10.3944 -1.2013,0.8963 -7.7695,-10.3944 z"
         style="fill:#ffffff;fill-rule:evenodd;stroke-width:2.38725758"
         id="path22"
         inkscape:connector-curvature="0" />
      <path
         d="m 533.0421,259.0668 -1.4536,-1.5001 H 219.8288 l -1.1064,1.5001 z m -11.6286,-12.0002 -1.4536,-1.5001 H 228.6785 l -1.1063,1.5001 z m -10.1747,-10.5001 -1.4536,-1.5001 H 236.4219 l -1.1063,1.5001 z m -10.7563,-11.1002 -1.4539,-1.5001 H 244.6078 l -1.1064,1.5001 z m -10.1747,-10.4998 -1.4536,-1.5001 H 252.3509 l -1.106,1.5001 z m -10.4655,-10.8 -1.4536,-1.5001 h -218.073 l -1.1063,1.5001 z m -10.4655,-10.8 -1.4536,-1.5001 h -199.643 l -1.1063,1.5001 z m -10.7561,-11.0999 -1.4536,-1.5001 h -180.701 l -1.1064,1.5001 z m -9.8841,-10.1999 -1.4536,-1.5001 H 283.9881 l -1.1063,1.5001 z m -9.8841,-10.2002 -1.4536,-1.5001 H 291.5104 l -1.1063,1.5001 z m -11.6283,-11.9999 -1.4536,-1.5001 H 300.3599 l -1.1064,1.5001 z m -9.8841,-10.2002 -1.4539,-1.5001 h -108.004 l -1.1064,1.5001 z m -9.3028,-9.6001 -1.4539,-1.5001 h -91.6217 l -1.106,1.5001 z m -11.6283,-11.9999 -1.4536,-1.5001 h -71.1442 l -1.1061,1.5001 z m -10.7563,-11.1002 -1.4536,-1.5001 h -52.2017 l -1.1064,1.5001 z m -10.4655,-10.8 -1.4536,-1.5001 h -33.7717 l -1.1064,1.5001 z m -9.8844,-10.2002 -1.4536,-1.5001 h -16.365 l -1.1064,1.5001 z"
         style="fill:#e30016;fill-rule:evenodd;stroke-width:2.38725758"
         id="path24"
         inkscape:connector-curvature="0" />
      <path
         d="m 534.0733,259.0668 -1.4536,-1.5001 h -53.0362 l 1.0264,1.5001 z m -11.6285,-12.0002 -1.4536,-1.5001 H 471.371 l 1.0267,1.5001 z m -10.1747,-10.5001 -1.4536,-1.5001 h -46.6314 l 1.0265,1.5001 z m -10.7564,-11.1002 -1.4539,-1.5001 h -43.4712 l 1.0264,1.5001 z m -10.1746,-10.4998 -1.4536,-1.5001 h -40.4828 l 1.0268,1.5001 z m -10.4656,-10.8 -1.4536,-1.5001 h -37.4082 l 1.0264,1.5001 z m -10.4655,-10.8 -1.4536,-1.5001 h -34.3341 l 1.0268,1.5001 z m -10.756,-11.0999 -1.4536,-1.5001 h -31.1743 l 1.0267,1.5001 z m -9.8842,-10.1999 -1.4536,-1.5001 h -28.2704 l 1.0264,1.5001 z m -9.8759,-10.2002 -1.4536,-1.5001 h -25.3754 l 1.0267,1.5001 z m -11.6282,-11.9999 -1.4537,-1.5001 h -21.9594 l 1.0267,1.5001 z m -9.8842,-10.2002 -1.4539,-1.5001 H 397.87 l 1.0267,1.5001 z m -9.3027,-9.6001 -1.4539,-1.5001 h -16.3227 l 1.0264,1.5001 z m -11.6283,-11.9999 -1.4536,-1.5001 h -12.9073 l 1.0267,1.5001 z m -10.7563,-11.1002 -1.4536,-1.5001 h -9.7475 l 1.0267,1.5001 z m -10.4656,-10.8 -1.4536,-1.5001 H 368.1 l 1.0267,1.5001 z m -9.8844,-10.2002 -1.4536,-1.5001 h -3.7692 l 1.0264,1.5001 z"
         style="fill:#ffffff;fill-rule:evenodd;stroke-width:2.38725758"
         id="path26"
         inkscape:connector-curvature="0" />
      <g
         id="Layer1002"
         style="stroke-width:2.38725758">
        <path
           d="m 207.6721,130.5573 c 1.5925,0.5972 3.1853,1.7915 4.7778,1.7915 -2.3718,-11.124 -5.1262,-22.0559 -8.5601,-32.6484 -2.7207,4.1806 -5.4414,8.3611 -8.1621,12.5416 7.3934,39.8917 10.0046,80.2177 11.5464,120.6403 14.4859,-21.9657 1.6163,-66.0954 0.398,-102.325 z"
           style="fill:#1b1918;fill-rule:evenodd;stroke-width:2.38725758"
           id="path28"
           inkscape:connector-curvature="0" />
        <path
           d="m 181.3941,148.0759 c -12.3826,18.9445 -24.38,26.7188 -36.2319,30.2596 13.0793,-7.854 24.6129,-18.0255 33.4449,-32.2503 -5.2614,-4.148 -7.9858,-12.8251 1.3935,-14.9307 4.2236,-0.9482 6.6654,6.2867 4.5788,10.7501 2.1583,5.5695 0.4969,6.9724 -3.1853,6.1713 z"
           style="fill:#1b1918;fill-rule:evenodd;stroke-width:2.38725758"
           id="path30"
           inkscape:connector-curvature="0" />
        <path
           d="m 150.1393,249.2067 c -12.4093,9.3932 -24.8179,12.638 -37.2274,10.3519 10.3365,-1.6838 20.5574,-2.8066 31.1516,-10.4947 3.4398,-2.4965 5.3271,-6.4817 10.4553,-9.811 10.5968,-2.6354 8.8466,17.0348 -4.3795,9.9538 z"
           style="fill:#1b1918;fill-rule:evenodd;stroke-width:2.38725758"
           id="path32"
           inkscape:connector-curvature="0" />
        <path
           d="m 210.0356,253.0834 c -39.3188,31.3937 -47.927,-41.3195 -16.1251,-76.125 -21.881,41.0499 -18.9885,74.1195 -0.9375,72.375 19.2884,-1.8637 36.3663,-45.4016 85.8751,-54.5626 -7.6865,-21.9705 12.414,-29.0931 15.3751,-40.5 -0.413,-4.1324 0.5383,-7.992 2.6249,-11.6249 4.0507,2.0333 8.0781,4.2029 11.6251,8.2499 -2.2082,1.0625 -2.6042,2.1255 -1.3124,3.1876 9.0144,9.6885 39.9288,25.6224 29.2498,49.875 -3.9812,8.3027 -13.3324,12.3939 -17.2499,10.1251 -9.5,-3.3749 -18.4374,-6.3751 -27.9374,-9.7501 -54.1511,10.9177 -64.8493,35.4575 -81.1877,48.75 z m 104.6248,-73.5001 c 24.7876,18.5907 22.4634,29.5974 -5.9998,13.875 3.0229,-4.3693 4.9771,-9.0059 5.9998,-13.875 z m -19.7818,8.8124 c 6.3683,0 13.0311,-5.0454 13.0311,-9.1874 0,-4.142 -5.1627,-10.8751 -11.5311,-10.8751 -6.3683,0 -12.0934,5.4207 -12.0934,12.0002 0,4.7043 4.225,8.0623 10.5934,8.0623 z"
           style="fill:#1b1918;fill-rule:evenodd;stroke-width:2.38725758"
           id="path34"
           inkscape:connector-curvature="0" />
        <path
           d="m 311.4737,107.771 c -0.625,5.3124 -1.2501,10.6251 -1.8751,15.9375 2.461,2.5812 5.3858,4.9799 7.9968,7.5642 11.1107,10.9959 22.9292,22.1814 34.2057,32.745 22.4827,21.0617 41.6973,40.2123 41.0476,54.3784 -20.681,21.0702 -40.9453,30.8991 -61.1251,38.4375 27.6893,4.5746 77.8597,-15.343 74.8128,-62.4376 -1.3947,-21.5566 -5.6877,-42.7501 -8.8127,-64.125 2.2502,0.875 4.5,1.7501 6.7502,2.6251 -3.3749,-10.6251 -6.7502,-21.2502 -10.1251,-31.8753 -2.8749,4.5627 -5.7501,9.125 -8.625,13.6877 3.4597,14.256 19.3167,88.6864 10.3125,98.4376 -2.0636,-31.8938 -40.0521,-54.669 -65.2502,-82.6875 0,-0.625 0,-1.2501 0,-1.8751 2.361,1.1149 4.5151,1.1974 6.3752,-0.1874 -8.267,-7.7624 -16.9203,-14.3637 -25.6876,-20.6251 z"
           style="fill:#1b1918;fill-rule:evenodd;stroke-width:2.38725758"
           id="path36"
           inkscape:connector-curvature="0" />
        <path
           d="m 363.7862,136.6461 c -1.5001,2.3125 -0.7497,5.1874 0.5624,4.6873 9.675,-5.2735 17.47,-5.3824 15.3284,-11.1092 -16.6941,9.0879 -17.1805,-4.322 -11.9532,-3.5158 7.5467,3.3596 5.9718,-3.9955 2.2031,-4.5 -7.0449,-0.9434 -14.6616,12.6555 -6.1407,14.4377 z"
           style="fill:#1b1918;fill-rule:evenodd;stroke-width:2.38725758"
           id="path38"
           inkscape:connector-curvature="0" />
        <path
           d="m 254.8536,245.1271 c 0.2084,5.7501 0.4167,11.4999 0.6251,17.25 -0.3773,0.3305 -1.6336,-4.5788 -2.4951,-9.6044 -0.9779,-5.7044 -2.3408,-11.3816 2.6201,-11.5208 -0.3813,-9.1497 4.8739,-8.3807 10.2501,-2.1249 1.3444,6.8018 -8.087,1.9247 -11.0002,6.0001 z"
           style="fill:#1b1918;fill-rule:evenodd;stroke-width:2.38725758"
           id="path40"
           inkscape:connector-curvature="0" />
        <path
           d="m 235.4791,185.6268 c 2.9543,0.5173 4.4167,5.5003 5.1251,10.3751 1.5417,2.2646 3.0835,2.0281 4.625,0.125 1.0261,-17.6712 4.9535,-18.9666 9.4745,-15.0622 0.7429,0.6418 1.4587,3.4002 2.5098,1.9369 2.5954,-4.1065 -3.6428,-9.1505 -8.4844,-6.8749 -2.8327,1.3312 -4.3869,6.2144 -5,13 -3.9442,-9.0796 -9.775,-12.399 -12.875,-9.75 -3.0807,2.6325 -0.2015,5.4048 4.625,6.2501 z"
           style="fill:#1b1918;fill-rule:evenodd;stroke-width:2.38725758"
           id="path42"
           inkscape:connector-curvature="0" />
        <path
           d="m 302.1041,240.8771 c 2.9542,0.5174 4.4166,5.5004 5.125,10.3751 1.5418,2.2646 3.0835,2.0282 4.625,0.125 1.0262,-17.6712 4.9536,-18.9666 9.4745,-15.0621 0.743,0.6417 1.4587,3.4001 2.5098,1.9369 2.5954,-4.1066 -3.6428,-9.1506 -8.4844,-6.8749 -2.8326,1.3312 -4.3869,6.2144 -5,13 -3.9441,-9.0797 -9.775,-12.3991 -12.8749,-9.7501 -3.0807,2.6326 -0.2016,5.4048 4.625,6.2501 z"
           style="fill:#1b1918;fill-rule:evenodd;stroke-width:2.38725758"
           id="path44"
           inkscape:connector-curvature="0" />
        <path
           d="m 149.6038,110.3769 c 2.9543,0.5173 4.4167,5.5003 5.1251,10.375 1.5417,2.2646 3.0835,2.0282 4.625,0.125 1.0261,-17.6711 4.9535,-18.9666 9.4745,-15.0621 0.7429,0.6417 1.4587,3.4001 2.5098,1.9369 2.5954,-4.1066 -3.6428,-9.1505 -8.4844,-6.8749 -2.8327,1.3312 -4.3869,6.2144 -5,13 -3.9442,-9.0797 -9.775,-12.399 -12.875,-9.7501 -3.0807,2.6326 -0.2015,5.4049 4.625,6.2502 z"
           style="fill:#1b1918;fill-rule:evenodd;stroke-width:2.38725758"
           id="path46"
           inkscape:connector-curvature="0" />
        <path
           d="m 239.6648,99.4283 c 0.282,-1.1361 -0.074,-2.2158 0.0464,-2.4576 -3.0441,1.3011 -8.3809,3.9129 -12.4653,6.4715 -3.289,2.0602 -5.7668,3.1065 -5.5814,6.6736 6.0145,-5.5344 11.673,-7.6541 18.0003,-10.6875 z"
           style="fill:#1b1918;fill-rule:evenodd;stroke-width:2.38725758"
           id="path48"
           inkscape:connector-curvature="0" />
        <path
           d="m 370.8262,104.5453 c 0.3746,-1.509 1.7684,-3.4431 1.9285,-3.7643 -4.0433,1.7282 -12.9985,5.6977 -18.4236,9.0957 -4.3682,2.7364 -7.6597,4.1261 -7.4134,8.8641 7.9887,-7.3509 15.5045,-10.1665 23.9085,-14.1955 z"
           style="fill:#1b1918;fill-rule:evenodd;stroke-width:2.38725758"
           id="path50"
           inkscape:connector-curvature="0" />
        <path
           d="m 416.7116,233.0002 c -9.4606,7.9529 -9.8155,15.012 -7.2748,17.8847 2.499,2.8255 7.816,1.5987 8.2125,-6.4472 -3.3154,4.3869 -9.3503,-0.8603 -0.9377,-11.4375 z"
           style="fill:#1b1918;fill-rule:evenodd;stroke-width:2.38725758"
           id="path52"
           inkscape:connector-curvature="0" />
        <path
           d="m 361.5866,209.7502 c -9.4607,7.9529 -9.8156,15.012 -7.2749,17.8846 2.499,2.8256 7.816,1.5987 8.2126,-6.4471 -3.3154,4.3869 -9.3504,-0.8603 -0.9377,-11.4375 z"
           style="fill:#1b1918;fill-rule:evenodd;stroke-width:2.38725758"
           id="path54"
           inkscape:connector-curvature="0" />
        <path
           d="m 290.9279,101.2411 c 2.0339,0.6587 1.9809,0.523 3.6748,1.7192 5.0528,3.5682 3.1972,12.1099 -1.5142,14.2826 -11.8786,5.4777 -16.1473,-8.02 -8.282,-15.3989 0.248,0.3453 -3.6851,10.1792 0.0119,12.3817 0.0422,0.0253 -0.2203,-0.119 -0.1035,-0.0825 10.0817,3.1536 10.4448,-6.281 5.5951,-7.946 -1.3686,-0.1707 -2.3398,-1.4185 -2.1691,-2.7871 0.1706,-1.3685 1.4184,-2.3397 2.787,-2.169 z"
           style="fill:#1b1918;fill-rule:evenodd;stroke-width:2.38725758"
           id="path56"
           inkscape:connector-curvature="0" />
        <path
           d="m 431.6221,130.7072 c 1.5925,0.5973 3.7851,2.0917 5.3776,2.0917 -2.3717,-11.124 -6.476,-20.1059 -9.9099,-30.6984 -2.7207,4.1806 -5.4414,8.3611 -8.1621,12.5416 7.7097,39.8917 15.2893,91.0177 16.3463,131.4403 15.9421,-28.5656 -2.3893,-86.7957 -3.6519,-115.3752 z"
           style="fill:#1b1918;fill-rule:evenodd;stroke-width:2.38725758"
           id="path58"
           inkscape:connector-curvature="0" />
        <path
           d="m 132.6206,222.5305 c -15.1143,-23.0471 -0.125,-61.1405 16.9214,-84.8067 -18.9504,35.5218 -28.6285,73.639 -5.7733,77.2418 22.8316,1.0316 36.6783,-56.8836 90.7787,-70.6719 -8.1071,-12.1816 -3.9045,-24.8474 6.7685,-33.2459 9.5344,-2.2192 44.4589,18.4853 25.2828,38.6206 -6.0386,1.3272 -12.0773,2.6544 -18.1159,3.9816 -1.6589,0.4646 -3.318,0.9289 -4.9768,1.3935 -34.4319,7.3704 -50.3844,25.3667 -63.5054,44.9912 -25.8282,37.5625 -38.9509,32.9097 -47.38,22.4958 z m 121.4362,-86.3992 c 2.5217,-6.503 -10.8828,-9.2242 -16.3241,-8.7593 -1.9245,13.2715 9.2902,13.8024 16.3241,8.7593 z"
           style="fill:#1b1918;fill-rule:evenodd;stroke-width:2.38725758"
           id="path60"
           inkscape:connector-curvature="0" />
      </g>
    </g>
  </g>
</svg>
